<?xml version="1.0" encoding="utf-8"?>
<!-- Generator: Adobe Illustrator 17.1.0, SVG Export Plug-In . SVG Version: 6.00 Build 0)  -->
<!DOCTYPE svg PUBLIC "-//W3C//DTD SVG 1.1//EN" "http://www.w3.org/Graphics/SVG/1.1/DTD/svg11.dtd">
<svg version="1.1" id="Ebene_1" xmlns="http://www.w3.org/2000/svg" xmlns:xlink="http://www.w3.org/1999/xlink" x="0px" y="0px"
	 width="24px" height="24px" viewBox="0 0 24 24" enable-background="new 0 0 24 24" xml:space="preserve">
<path d="M18.7,6.7h-7.3c-0.2-0.9-1-1.4-1.8-1.4S8,5.9,7.8,6.7H5.3v1h2.5c0.2,0.9,1,1.4,1.8,1.4s1.6-0.6,1.8-1.4h7.3V6.7z M9.6,8.2
	c-0.6,0-1-0.4-1-1s0.4-1,1-1s1,0.4,1,1S10.2,8.2,9.6,8.2z"/>
<path d="M18.7,11.5h-2.5c-0.2-0.9-1-1.4-1.8-1.4c-0.9,0-1.6,0.6-1.8,1.4H5.3v1h7.3c0.2,0.9,1,1.4,1.8,1.4c0.9,0,1.6-0.6,1.8-1.4h2.5
	V11.5z M14.4,13c-0.6,0-1-0.4-1-1s0.4-1,1-1c0.6,0,1,0.4,1,1S15,13,14.4,13z"/>
<path d="M18.7,16.3h-7.3c-0.2-0.9-1-1.4-1.8-1.4S8,15.5,7.8,16.3H5.3v1h2.5c0.2,0.9,1,1.4,1.8,1.4s1.6-0.6,1.8-1.4h7.3V16.3z
	 M9.6,17.8c-0.6,0-1-0.4-1-1s0.4-1,1-1s1,0.4,1,1S10.2,17.8,9.6,17.8z"/>
</svg>
